<svg xmlns="http://www.w3.org/2000/svg" version="1.1" xmlns:xlink="http://www.w3.org/1999/xlink" xmlns:svgjs="http://svgjs.dev/svgjs" width="128" height="128" viewBox="0 0 128 128"><g transform="matrix(0.8046875,0,0,0.8046875,12.000140292085412,7.771869995117186)"><svg viewBox="0 0 88 96" data-background-color="#ffffff" preserveAspectRatio="xMidYMid meet" height="139" width="128" xmlns="http://www.w3.org/2000/svg" xmlns:xlink="http://www.w3.org/1999/xlink"><g id="tight-bounds" transform="matrix(1,0,0,1,0.4270646048202309,0.25950000000000273)"><svg viewBox="0 0 87.14587079035952 95.481" height="95.481" width="87.14587079035952"><g><svg viewBox="0 0 87.14587079035952 95.481" height="95.481" width="87.14587079035952"><g><svg viewBox="0 0 87.14587079035952 95.481" height="95.481" width="87.14587079035952"><g id="textblocktransform"><svg viewBox="0 0 87.14587079035952 95.481" height="95.481" width="87.14587079035952" id="textblock"><g><svg viewBox="0 0 87.14587079035952 95.481" height="95.481" width="87.14587079035952"><g><svg viewBox="0 0 87.14587079035952 95.481" height="95.481" width="87.14587079035952"><g><svg xmlns="http://www.w3.org/2000/svg" xmlns:xlink="http://www.w3.org/1999/xlink" version="1.1" x="0" y="0" viewBox="7.323297795157709 5.9795970888124135 80.97670220484228 88.72177686789338" enable-background="new 0 0 100 100" xml:space="preserve" height="95.481" width="87.14587079035952" class="icon-icon-0" data-fill-palette-color="accent" id="icon-0"><path d="M43.2 18.2C40.7 14.1 38.4 10.6 38.4 10.6 38.1 9.5 36.6 9.6 36.3 10.6L31.2 31.7C34.5 26.8 38.6 22.2 43.2 18.2" fill="#0071d4" data-fill-palette-color="accent"></path><path d="M77.2 81.5L75.7 60.5 68.2 83C62.4 85.6 57.4 83.6 52.9 79.6 48.1 75.3 48.1 69.6 50.9 65.1 51.5 64.2 52.2 63.2 52.9 62.3 53.5 62.7 54 63 54.5 63.4 59.2 66.8 62.7 73.3 62.7 73.3 63.6 73.9 64.3 73.1 64.7 71.9 64.7 71.9 67 61.7 64 51.8 63.8 51 63.5 50.3 63.3 49.6 71.1 36.6 75.1 24.1 77.6 8.6 77.8 7.1 76.6 5.8 75.1 6 57.1 7.4 41 20.3 31.6 35.2 29.7 35.7 27.6 36.3 25.5 37.1 15.8 40.6 8.1 45 8.1 45 7 45.4 7.1 46.9 8.2 47.1 8.2 47.1 23.7 50.3 24.6 50.6 24 52.7 23.6 54.7 23.4 56.7 21 76.1 30.8 91.2 49.8 94.3 58.7 95.8 66.4 93 71 87.5L88.3 92.1zM45.9 32.5C46 31.3 45.9 30.1 45.9 29.6 45.9 29.3 45.7 29.1 45.5 29.4 44.8 30.3 44 31.8 42.1 33.3 40.9 33.6 39.6 34.1 38.4 34.7 37.7 35 37.5 34 38.2 33.4 39.4 32.3 40.7 31.2 41.9 30.1 42 30.7 42.2 31.2 42.3 31.5 42.4 31.7 42.5 31.8 42.7 31.5 43.2 30.6 43.6 29.2 45.3 27.3 45.7 27 46 26.7 46.4 26.5L46.9 28.5C47 28.7 47.1 28.8 47.3 28.5 47.8 27.5 48.2 25.9 50.5 23.7 50.5 23.7 51.2 26.6 51.5 27.2 51.6 27.5 51.8 27.6 52 27.2 52.7 25.9 53.2 23.9 56.1 21.1 55.6 22.9 55.7 25.6 55.8 26.6 55.8 26.9 56 27.1 56.2 26.8 57.1 25.6 61.1 21.5 61.6 21.8 61.1 25.5 59.9 27.3 59.2 28.6 59 28.9 59.2 29 59.5 28.9 60.3 28.6 62.1 27.9 63.5 27V27.1C62.3 30.1 60.9 31.6 60 32.7 59.8 33 59.9 33.1 60.2 33.1 60.8 33.1 62 32.9 63.1 32.6 62.1 35.3 60.9 36.3 60.2 37.2 60 37.4 60.1 37.5 60.4 37.5 60.8 37.5 61.6 37.4 62.4 37.2 62.4 37.4 60.5 40.2 60 40.9 59.8 41.1 59.9 41.2 60.2 41.2S61 41.1 61.5 41C61 43 60.4 45 59.7 47 59.4 47.9 58.4 48.2 58.4 47.4 58.4 45.3 58.2 43.4 57.8 41.6 58.3 40.6 58.8 39.9 59.2 39.2 59.4 38.9 59.2 38.8 58.9 38.9 58.5 39 57.9 39.3 57.2 39.6 57.8 37.6 58.7 36.5 59.2 35.6 59.4 35.3 59.2 35.2 58.9 35.3 58.2 35.5 56.8 36.1 55.5 36.8 56.1 34.7 57.1 33.6 57.6 32.6 57.8 32.3 57.6 32.2 57.3 32.3 57.1 32.4 56.7 32.5 56.3 32.7H56C55.3 32.9 53.9 33.5 52.6 34.2 52.9 32.5 52.9 30.3 52.8 29.4 52.8 29.1 52.6 28.9 52.4 29.2 51.7 30.1 51 31.4 49.4 32.8 49.6 31.3 49.5 29.6 49.4 28.9 49.4 28.6 49.2 28.4 49 28.7 48.1 29.8 47.5 31 45.9 32.5" fill="#0071d4" data-fill-palette-color="accent"></path></svg></g></svg></g></svg></g></svg></g></svg></g></svg></g><defs></defs></svg><rect width="87.14587079035952" height="95.481" fill="none" stroke="none" visibility="hidden"></rect></g></svg></g></svg>